solid OpenSCAD_Model
  facet normal 0 0 -1
    outer loop
      vertex 19.1777 -19.8541 -3
      vertex 19.0205 -19.3053 -3
      vertex 19.1865 -19.5543 -3
    endloop
  endfacet
  facet normal 0 0 -1
    outer loop
      vertex 18.9971 -20.0924 -3
      vertex 19.0205 -19.3053 -3
      vertex 19.1777 -19.8541 -3
    endloop
  endfacet
  facet normal 0 0 -1
    outer loop
      vertex 18.7119 -20.1832 -3
      vertex 19.0205 -19.3053 -3
      vertex 18.9971 -20.0924 -3
    endloop
  endfacet
  facet normal 0 0 -1
    outer loop
      vertex 14.9482 -18.2496 -3
      vertex 19.0205 -19.3053 -3
      vertex 18.7119 -20.1832 -3
    endloop
  endfacet
  facet normal 0 0 -1
    outer loop
      vertex 19.0205 -19.3053 -3
      vertex 14.9482 -18.2496 -3
      vertex 15.3496 -16.1549 -3
    endloop
  endfacet
  facet normal 0 0 -1
    outer loop
      vertex 14.9482 -16.3473 -3
      vertex 15.3496 -16.1549 -3
      vertex 14.9482 -18.2496 -3
    endloop
  endfacet
  facet normal 0 0 -1
    outer loop
      vertex 18.7119 -20.1832 -3
      vertex 4.29785 -18.2496 -3
      vertex 14.9482 -18.2496 -3
    endloop
  endfacet
  facet normal -0 0 -1
    outer loop
      vertex 3.94531 -18.0953 -3
      vertex 0 -20.1832 -3
      vertex 3.82422 -17.7565 -3
    endloop
  endfacet
  facet normal -0 0 -1
    outer loop
      vertex 4.29785 -18.2496 -3
      vertex 0 -20.1832 -3
      vertex 3.94531 -18.0953 -3
    endloop
  endfacet
  facet normal 0 0 -1
    outer loop
      vertex 0 -20.1832 -3
      vertex 4.29785 -18.2496 -3
      vertex 18.7119 -20.1832 -3
    endloop
  endfacet
  facet normal -0 0 -1
    outer loop
      vertex 15.3496 -16.1549 -3
      vertex 14.9482 -16.3473 -3
      vertex 15.0889 -16.1246 -3
    endloop
  endfacet
  facet normal 0 0 -1
    outer loop
      vertex 12.4629 -17.2643 -3
      vertex 13.4482 -16.2779 -3
      vertex 13.3711 -16.6617 -3
    endloop
  endfacet
  facet normal 0 0 -1
    outer loop
      vertex 17.4131 14.0385 -3
      vertex 17.9062 14.5316 -3
      vertex 17.7617 14.183 -3
    endloop
  endfacet
  facet normal 0 0 -1
    outer loop
      vertex 17.9062 14.5316 -3
      vertex 15.9746 14.599 -3
      vertex 17.9062 18.2113 -3
    endloop
  endfacet
  facet normal 0 0 -1
    outer loop
      vertex 17.9062 14.5316 -3
      vertex 17.4131 14.0385 -3
      vertex 16.8643 14.0385 -3
    endloop
  endfacet
  facet normal 0 0 -1
    outer loop
      vertex 17.9062 18.2113 -3
      vertex 14.9482 18.2494 -3
      vertex 17.7559 20.9652 -3
    endloop
  endfacet
  facet normal -0 0 -1
    outer loop
      vertex 17.9062 14.5316 -3
      vertex 16.8643 14.0385 -3
      vertex 15.9746 14.599 -3
    endloop
  endfacet
  facet normal 0 -0 -1
    outer loop
      vertex 15.9346 22.183 -3
      vertex 17.7559 20.9652 -3
      vertex 14.9482 18.2494 -3
    endloop
  endfacet
  facet normal 0 0 -1
    outer loop
      vertex 15.9746 14.599 -3
      vertex 16.8643 14.0385 -3
      vertex 16.3389 14.1898 -3
    endloop
  endfacet
  facet normal -0 0 -1
    outer loop
      vertex 17.9062 18.2113 -3
      vertex 15.9746 14.599 -3
      vertex 14.9482 18.2494 -3
    endloop
  endfacet
  facet normal 0 0 -1
    outer loop
      vertex 17.7559 20.9652 -3
      vertex 15.9346 22.183 -3
      vertex 17.3291 21.6049 -3
    endloop
  endfacet
  facet normal 0 0 -1
    outer loop
      vertex 17.3291 21.6049 -3
      vertex 15.9346 22.183 -3
      vertex 16.6895 22.0326 -3
    endloop
  endfacet
  facet normal 0 0 -1
    outer loop
      vertex 13.4482 18.2494 -3
      vertex 15.9346 22.183 -3
      vertex 14.9482 18.2494 -3
    endloop
  endfacet
  facet normal 0 0 -1
    outer loop
      vertex 12.4629 -17.2643 -3
      vertex 13.3711 -16.6617 -3
      vertex 13.1602 -16.9752 -3
    endloop
  endfacet
  facet normal 0 0 -1
    outer loop
      vertex 12.4629 -17.2643 -3
      vertex 13.1602 -16.9752 -3
      vertex 12.8467 -17.1861 -3
    endloop
  endfacet
  facet normal 0 0 -1
    outer loop
      vertex 13.4482 -16.2779 -3
      vertex 12.4629 -17.2643 -3
      vertex 4.29785 -17.2643 -3
    endloop
  endfacet
  facet normal -0 0 -1
    outer loop
      vertex 13.4482 -16.2779 -3
      vertex 4.29785 -17.2643 -3
      vertex 13.4482 18.2494 -3
    endloop
  endfacet
  facet normal 0 0 -1
    outer loop
      vertex 0 22.183 -3
      vertex 4.29785 -17.2643 -3
      vertex 3.93848 -17.4176 -3
    endloop
  endfacet
  facet normal 0 0 -1
    outer loop
      vertex 0 -20.1832 -3
      vertex 3.93848 -17.4176 -3
      vertex 3.82422 -17.7565 -3
    endloop
  endfacet
  facet normal -0 0 -1
    outer loop
      vertex 3.93848 -17.4176 -3
      vertex 0 -20.1832 -3
      vertex 0 22.183 -3
    endloop
  endfacet
  facet normal 0 0 -1
    outer loop
      vertex 13.4482 18.2494 -3
      vertex 0 22.183 -3
      vertex 15.9346 22.183 -3
    endloop
  endfacet
  facet normal 0 0 -1
    outer loop
      vertex 4.29785 -17.2643 -3
      vertex 0 22.183 -3
      vertex 13.4482 18.2494 -3
    endloop
  endfacet
  facet normal 0 0 -1
    outer loop
      vertex -5 -43.5 -3
      vertex 0 -20.1832 -3
      vertex 0 -49.5 -3
    endloop
  endfacet
  facet normal 0 0 -1
    outer loop
      vertex -5 43.5 -3
      vertex 0 -20.1832 -3
      vertex -5 -43.5 -3
    endloop
  endfacet
  facet normal 0 0 -1
    outer loop
      vertex 0 -20.1832 -3
      vertex -5 43.5 -3
      vertex 0 22.183 -3
    endloop
  endfacet
  facet normal 0 0 -1
    outer loop
      vertex -7 -49.5 -3
      vertex -5 -43.5 -3
      vertex 0 -49.5 -3
    endloop
  endfacet
  facet normal -0 0 -1
    outer loop
      vertex -5 -43.5 -3
      vertex -7 -49.5 -3
      vertex -7 -43.5 -3
    endloop
  endfacet
  facet normal 0 0 -1
    outer loop
      vertex 0 22.183 -3
      vertex -5 43.5 -3
      vertex 0 49.5 -3
    endloop
  endfacet
  facet normal 0 0 -1
    outer loop
      vertex -7 49.5 -3
      vertex -5 43.5 -3
      vertex -7 43.5 -3
    endloop
  endfacet
  facet normal 0 0 -1
    outer loop
      vertex -5 43.5 -3
      vertex -7 49.5 -3
      vertex 0 49.5 -3
    endloop
  endfacet
  facet normal -0 0 1
    outer loop
      vertex 15.9746 14.599 3
      vertex 17.9062 14.5316 3
      vertex 17.9062 18.2113 3
    endloop
  endfacet
  facet normal -0 0 1
    outer loop
      vertex 14.9482 18.2494 3
      vertex 17.9062 18.2113 3
      vertex 17.7559 20.9652 3
    endloop
  endfacet
  facet normal 0 -0 1
    outer loop
      vertex 15.9746 14.599 3
      vertex 17.9062 18.2113 3
      vertex 14.9482 18.2494 3
    endloop
  endfacet
  facet normal 0 0 1
    outer loop
      vertex 15.9346 22.183 3
      vertex 17.7559 20.9652 3
      vertex 17.3291 21.6049 3
    endloop
  endfacet
  facet normal 0 -0 1
    outer loop
      vertex 16.8643 14.0385 3
      vertex 17.9062 14.5316 3
      vertex 15.9746 14.599 3
    endloop
  endfacet
  facet normal 0 0 1
    outer loop
      vertex 15.9346 22.183 3
      vertex 17.3291 21.6049 3
      vertex 16.6895 22.0326 3
    endloop
  endfacet
  facet normal 0 -0 1
    outer loop
      vertex 17.4131 14.0385 3
      vertex 17.9062 14.5316 3
      vertex 16.8643 14.0385 3
    endloop
  endfacet
  facet normal 0 0 1
    outer loop
      vertex 17.9062 14.5316 3
      vertex 17.4131 14.0385 3
      vertex 17.7617 14.183 3
    endloop
  endfacet
  facet normal 0 0 1
    outer loop
      vertex 17.7559 20.9652 3
      vertex 15.9346 22.183 3
      vertex 14.9482 18.2494 3
    endloop
  endfacet
  facet normal 0 0 1
    outer loop
      vertex 16.8643 14.0385 3
      vertex 15.9746 14.599 3
      vertex 16.3389 14.1898 3
    endloop
  endfacet
  facet normal 0 0 1
    outer loop
      vertex 15.9346 22.183 3
      vertex 13.4482 18.2494 3
      vertex 14.9482 18.2494 3
    endloop
  endfacet
  facet normal 0 0 1
    outer loop
      vertex 4.29785 -17.2643 3
      vertex 13.4482 -16.2779 3
      vertex 13.4482 18.2494 3
    endloop
  endfacet
  facet normal 0 -0 1
    outer loop
      vertex 12.4629 -17.2643 3
      vertex 13.4482 -16.2779 3
      vertex 4.29785 -17.2643 3
    endloop
  endfacet
  facet normal 0 0 1
    outer loop
      vertex 13.4482 -16.2779 3
      vertex 12.4629 -17.2643 3
      vertex 13.3711 -16.6617 3
    endloop
  endfacet
  facet normal 0 0 1
    outer loop
      vertex 13.1602 -16.9752 3
      vertex 12.4629 -17.2643 3
      vertex 12.8467 -17.1861 3
    endloop
  endfacet
  facet normal 0 0 1
    outer loop
      vertex 13.3711 -16.6617 3
      vertex 12.4629 -17.2643 3
      vertex 13.1602 -16.9752 3
    endloop
  endfacet
  facet normal 0 0 1
    outer loop
      vertex 0 22.183 3
      vertex 4.29785 -17.2643 3
      vertex 13.4482 18.2494 3
    endloop
  endfacet
  facet normal 0 0 1
    outer loop
      vertex 4.29785 -17.2643 3
      vertex 0 22.183 3
      vertex 3.93848 -17.4176 3
    endloop
  endfacet
  facet normal 0 0 1
    outer loop
      vertex 0 -20.1832 3
      vertex 3.93848 -17.4176 3
      vertex 0 22.183 3
    endloop
  endfacet
  facet normal -0 0 1
    outer loop
      vertex 0 22.183 3
      vertex 13.4482 18.2494 3
      vertex 15.9346 22.183 3
    endloop
  endfacet
  facet normal 0 0 1
    outer loop
      vertex 19.0205 -19.3053 3
      vertex 19.1777 -19.8541 3
      vertex 19.1865 -19.5543 3
    endloop
  endfacet
  facet normal 0 0 1
    outer loop
      vertex 19.0205 -19.3053 3
      vertex 18.9971 -20.0924 3
      vertex 19.1777 -19.8541 3
    endloop
  endfacet
  facet normal 0 0 1
    outer loop
      vertex 19.0205 -19.3053 3
      vertex 18.7119 -20.1832 3
      vertex 18.9971 -20.0924 3
    endloop
  endfacet
  facet normal -0 0 1
    outer loop
      vertex 14.9482 -18.2496 3
      vertex 19.0205 -19.3053 3
      vertex 15.3496 -16.1549 3
    endloop
  endfacet
  facet normal 0 0 1
    outer loop
      vertex 14.9482 -16.3473 3
      vertex 15.3496 -16.1549 3
      vertex 15.0889 -16.1246 3
    endloop
  endfacet
  facet normal 0 0 1
    outer loop
      vertex 15.3496 -16.1549 3
      vertex 14.9482 -16.3473 3
      vertex 14.9482 -18.2496 3
    endloop
  endfacet
  facet normal 0 0 1
    outer loop
      vertex 19.0205 -19.3053 3
      vertex 14.9482 -18.2496 3
      vertex 18.7119 -20.1832 3
    endloop
  endfacet
  facet normal -0 0 1
    outer loop
      vertex 4.29785 -18.2496 3
      vertex 18.7119 -20.1832 3
      vertex 14.9482 -18.2496 3
    endloop
  endfacet
  facet normal 0 0 1
    outer loop
      vertex 4.29785 -18.2496 3
      vertex 0 -20.1832 3
      vertex 18.7119 -20.1832 3
    endloop
  endfacet
  facet normal 0 0 1
    outer loop
      vertex 3.94531 -18.0953 3
      vertex 0 -20.1832 3
      vertex 4.29785 -18.2496 3
    endloop
  endfacet
  facet normal 0 0 1
    outer loop
      vertex 3.82422 -17.7565 3
      vertex 0 -20.1832 3
      vertex 3.94531 -18.0953 3
    endloop
  endfacet
  facet normal 0 0 1
    outer loop
      vertex 3.93848 -17.4176 3
      vertex 0 -20.1832 3
      vertex 3.82422 -17.7565 3
    endloop
  endfacet
  facet normal -0 0 1
    outer loop
      vertex -5 43.5 3
      vertex 0 22.183 3
      vertex 0 49.5 3
    endloop
  endfacet
  facet normal 0 0 1
    outer loop
      vertex 0 22.183 3
      vertex -5 43.5 3
      vertex 0 -20.1832 3
    endloop
  endfacet
  facet normal 0 0 1
    outer loop
      vertex -5 -43.5 3
      vertex 0 -20.1832 3
      vertex -5 43.5 3
    endloop
  endfacet
  facet normal -0 0 1
    outer loop
      vertex -7 49.5 3
      vertex -5 43.5 3
      vertex 0 49.5 3
    endloop
  endfacet
  facet normal 0 0 1
    outer loop
      vertex -5 43.5 3
      vertex -7 49.5 3
      vertex -7 43.5 3
    endloop
  endfacet
  facet normal 0 0 1
    outer loop
      vertex 0 -20.1832 3
      vertex -5 -43.5 3
      vertex 0 -49.5 3
    endloop
  endfacet
  facet normal 0 0 1
    outer loop
      vertex -7 -49.5 3
      vertex -5 -43.5 3
      vertex -7 -43.5 3
    endloop
  endfacet
  facet normal 0 0 1
    outer loop
      vertex -5 -43.5 3
      vertex -7 -49.5 3
      vertex 0 -49.5 3
    endloop
  endfacet
  facet normal 0.79698 -0.604006 0
    outer loop
      vertex 18.9971 -20.0924 3
      vertex 19.1777 -19.8541 -3
      vertex 19.1777 -19.8541 3
    endloop
  endfacet
  facet normal 0.79698 -0.604006 0
    outer loop
      vertex 19.1777 -19.8541 -3
      vertex 18.9971 -20.0924 3
      vertex 18.9971 -20.0924 -3
    endloop
  endfacet
  facet normal 0.999569 -0.0293403 0
    outer loop
      vertex 19.1777 -19.8541 3
      vertex 19.1865 -19.5543 -3
      vertex 19.1865 -19.5543 3
    endloop
  endfacet
  facet normal 0.999569 -0.0293403 0
    outer loop
      vertex 19.1865 -19.5543 -3
      vertex 19.1777 -19.8541 3
      vertex 19.1777 -19.8541 -3
    endloop
  endfacet
  facet normal 0.83205 0.5547 0
    outer loop
      vertex 19.1865 -19.5543 3
      vertex 19.0205 -19.3053 -3
      vertex 19.0205 -19.3053 3
    endloop
  endfacet
  facet normal 0.83205 0.5547 0
    outer loop
      vertex 19.0205 -19.3053 -3
      vertex 19.1865 -19.5543 3
      vertex 19.1865 -19.5543 -3
    endloop
  endfacet
  facet normal 0.651258 0.758857 -0
    outer loop
      vertex 19.0205 -19.3053 -3
      vertex 15.3496 -16.1549 3
      vertex 19.0205 -19.3053 3
    endloop
  endfacet
  facet normal 0.651258 0.758857 0
    outer loop
      vertex 15.3496 -16.1549 3
      vertex 19.0205 -19.3053 -3
      vertex 15.3496 -16.1549 -3
    endloop
  endfacet
  facet normal 0.115448 0.993313 -0
    outer loop
      vertex 15.3496 -16.1549 -3
      vertex 15.0889 -16.1246 3
      vertex 15.3496 -16.1549 3
    endloop
  endfacet
  facet normal 0.115448 0.993313 0
    outer loop
      vertex 15.0889 -16.1246 3
      vertex 15.3496 -16.1549 -3
      vertex 15.0889 -16.1246 -3
    endloop
  endfacet
  facet normal -0.845408 0.534122 0
    outer loop
      vertex 14.9482 -16.3473 -3
      vertex 15.0889 -16.1246 3
      vertex 15.0889 -16.1246 -3
    endloop
  endfacet
  facet normal -0.845408 0.534122 0
    outer loop
      vertex 15.0889 -16.1246 3
      vertex 14.9482 -16.3473 -3
      vertex 14.9482 -16.3473 3
    endloop
  endfacet
  facet normal -1 0 0
    outer loop
      vertex 14.9482 -18.2496 -3
      vertex 14.9482 -16.3473 3
      vertex 14.9482 -16.3473 -3
    endloop
  endfacet
  facet normal -1 -0 0
    outer loop
      vertex 14.9482 -16.3473 3
      vertex 14.9482 -18.2496 -3
      vertex 14.9482 -18.2496 3
    endloop
  endfacet
  facet normal 0 1 -0
    outer loop
      vertex 14.9482 -18.2496 -3
      vertex 4.29785 -18.2496 3
      vertex 14.9482 -18.2496 3
    endloop
  endfacet
  facet normal 0 1 0
    outer loop
      vertex 4.29785 -18.2496 3
      vertex 14.9482 -18.2496 -3
      vertex 4.29785 -18.2496 -3
    endloop
  endfacet
  facet normal 0.400958 0.916096 -0
    outer loop
      vertex 4.29785 -18.2496 -3
      vertex 3.94531 -18.0953 3
      vertex 4.29785 -18.2496 3
    endloop
  endfacet
  facet normal 0.400958 0.916096 0
    outer loop
      vertex 3.94531 -18.0953 3
      vertex 4.29785 -18.2496 -3
      vertex 3.94531 -18.0953 -3
    endloop
  endfacet
  facet normal 0.941663 0.336558 0
    outer loop
      vertex 3.94531 -18.0953 3
      vertex 3.82422 -17.7565 -3
      vertex 3.82422 -17.7565 3
    endloop
  endfacet
  facet normal 0.941663 0.336558 0
    outer loop
      vertex 3.82422 -17.7565 -3
      vertex 3.94531 -18.0953 3
      vertex 3.94531 -18.0953 -3
    endloop
  endfacet
  facet normal 0.947593 -0.319481 0
    outer loop
      vertex 3.82422 -17.7565 3
      vertex 3.93848 -17.4176 -3
      vertex 3.93848 -17.4176 3
    endloop
  endfacet
  facet normal 0.947593 -0.319481 0
    outer loop
      vertex 3.93848 -17.4176 -3
      vertex 3.82422 -17.7565 3
      vertex 3.82422 -17.7565 -3
    endloop
  endfacet
  facet normal 0.392371 -0.919807 0
    outer loop
      vertex 3.93848 -17.4176 -3
      vertex 4.29785 -17.2643 3
      vertex 3.93848 -17.4176 3
    endloop
  endfacet
  facet normal 0.392371 -0.919807 0
    outer loop
      vertex 4.29785 -17.2643 3
      vertex 3.93848 -17.4176 -3
      vertex 4.29785 -17.2643 -3
    endloop
  endfacet
  facet normal 0 -1 0
    outer loop
      vertex 4.29785 -17.2643 -3
      vertex 12.4629 -17.2643 3
      vertex 4.29785 -17.2643 3
    endloop
  endfacet
  facet normal 0 -1 -0
    outer loop
      vertex 12.4629 -17.2643 3
      vertex 4.29785 -17.2643 -3
      vertex 12.4629 -17.2643 -3
    endloop
  endfacet
  facet normal 0.19965 -0.979867 0
    outer loop
      vertex 12.4629 -17.2643 -3
      vertex 12.8467 -17.1861 3
      vertex 12.4629 -17.2643 3
    endloop
  endfacet
  facet normal 0.19965 -0.979867 0
    outer loop
      vertex 12.8467 -17.1861 3
      vertex 12.4629 -17.2643 -3
      vertex 12.8467 -17.1861 -3
    endloop
  endfacet
  facet normal 0.558177 -0.829722 0
    outer loop
      vertex 12.8467 -17.1861 -3
      vertex 13.1602 -16.9752 3
      vertex 12.8467 -17.1861 3
    endloop
  endfacet
  facet normal 0.558177 -0.829722 0
    outer loop
      vertex 13.1602 -16.9752 3
      vertex 12.8467 -17.1861 -3
      vertex 13.1602 -16.9752 -3
    endloop
  endfacet
  facet normal 0.829722 -0.558177 0
    outer loop
      vertex 13.1602 -16.9752 3
      vertex 13.3711 -16.6617 -3
      vertex 13.3711 -16.6617 3
    endloop
  endfacet
  facet normal 0.829722 -0.558177 0
    outer loop
      vertex 13.3711 -16.6617 -3
      vertex 13.1602 -16.9752 3
      vertex 13.1602 -16.9752 -3
    endloop
  endfacet
  facet normal 0.980413 -0.196951 0
    outer loop
      vertex 13.3711 -16.6617 3
      vertex 13.4482 -16.2779 -3
      vertex 13.4482 -16.2779 3
    endloop
  endfacet
  facet normal 0.980413 -0.196951 0
    outer loop
      vertex 13.4482 -16.2779 -3
      vertex 13.3711 -16.6617 3
      vertex 13.3711 -16.6617 -3
    endloop
  endfacet
  facet normal 1 -0 0
    outer loop
      vertex 13.4482 -16.2779 3
      vertex 13.4482 18.2494 -3
      vertex 13.4482 18.2494 3
    endloop
  endfacet
  facet normal 1 0 0
    outer loop
      vertex 13.4482 18.2494 -3
      vertex 13.4482 -16.2779 3
      vertex 13.4482 -16.2779 -3
    endloop
  endfacet
  facet normal 0 -1 0
    outer loop
      vertex 13.4482 18.2494 -3
      vertex 14.9482 18.2494 3
      vertex 13.4482 18.2494 3
    endloop
  endfacet
  facet normal 0 -1 -0
    outer loop
      vertex 14.9482 18.2494 3
      vertex 13.4482 18.2494 -3
      vertex 14.9482 18.2494 -3
    endloop
  endfacet
  facet normal -0.96267 -0.270678 0
    outer loop
      vertex 15.9746 14.599 -3
      vertex 14.9482 18.2494 3
      vertex 14.9482 18.2494 -3
    endloop
  endfacet
  facet normal -0.96267 -0.270678 0
    outer loop
      vertex 14.9482 18.2494 3
      vertex 15.9746 14.599 -3
      vertex 15.9746 14.599 3
    endloop
  endfacet
  facet normal -0.746896 -0.664941 0
    outer loop
      vertex 16.3389 14.1898 -3
      vertex 15.9746 14.599 3
      vertex 15.9746 14.599 -3
    endloop
  endfacet
  facet normal -0.746896 -0.664941 0
    outer loop
      vertex 15.9746 14.599 3
      vertex 16.3389 14.1898 -3
      vertex 16.3389 14.1898 3
    endloop
  endfacet
  facet normal -0.276726 -0.960949 0
    outer loop
      vertex 16.3389 14.1898 -3
      vertex 16.8643 14.0385 3
      vertex 16.3389 14.1898 3
    endloop
  endfacet
  facet normal -0.276726 -0.960949 -0
    outer loop
      vertex 16.8643 14.0385 3
      vertex 16.3389 14.1898 -3
      vertex 16.8643 14.0385 -3
    endloop
  endfacet
  facet normal 0 -1 0
    outer loop
      vertex 16.8643 14.0385 -3
      vertex 17.4131 14.0385 3
      vertex 16.8643 14.0385 3
    endloop
  endfacet
  facet normal 0 -1 -0
    outer loop
      vertex 17.4131 14.0385 3
      vertex 16.8643 14.0385 -3
      vertex 17.4131 14.0385 -3
    endloop
  endfacet
  facet normal 0.382921 -0.923781 0
    outer loop
      vertex 17.4131 14.0385 -3
      vertex 17.7617 14.183 3
      vertex 17.4131 14.0385 3
    endloop
  endfacet
  facet normal 0.382921 -0.923781 0
    outer loop
      vertex 17.7617 14.183 3
      vertex 17.4131 14.0385 -3
      vertex 17.7617 14.183 -3
    endloop
  endfacet
  facet normal 0.923781 -0.382921 0
    outer loop
      vertex 17.7617 14.183 3
      vertex 17.9062 14.5316 -3
      vertex 17.9062 14.5316 3
    endloop
  endfacet
  facet normal 0.923781 -0.382921 0
    outer loop
      vertex 17.9062 14.5316 -3
      vertex 17.7617 14.183 3
      vertex 17.7617 14.183 -3
    endloop
  endfacet
  facet normal 1 -0 0
    outer loop
      vertex 17.9062 14.5316 3
      vertex 17.9062 18.2113 -3
      vertex 17.9062 18.2113 3
    endloop
  endfacet
  facet normal 1 0 0
    outer loop
      vertex 17.9062 18.2113 -3
      vertex 17.9062 14.5316 3
      vertex 17.9062 14.5316 -3
    endloop
  endfacet
  facet normal 0.998514 0.054496 0
    outer loop
      vertex 17.9062 18.2113 3
      vertex 17.7559 20.9652 -3
      vertex 17.7559 20.9652 3
    endloop
  endfacet
  facet normal 0.998514 0.054496 0
    outer loop
      vertex 17.7559 20.9652 -3
      vertex 17.9062 18.2113 3
      vertex 17.9062 18.2113 -3
    endloop
  endfacet
  facet normal 0.83185 0.555 0
    outer loop
      vertex 17.7559 20.9652 3
      vertex 17.3291 21.6049 -3
      vertex 17.3291 21.6049 3
    endloop
  endfacet
  facet normal 0.83185 0.555 0
    outer loop
      vertex 17.3291 21.6049 -3
      vertex 17.7559 20.9652 3
      vertex 17.7559 20.9652 -3
    endloop
  endfacet
  facet normal 0.555869 0.83127 -0
    outer loop
      vertex 17.3291 21.6049 -3
      vertex 16.6895 22.0326 3
      vertex 17.3291 21.6049 3
    endloop
  endfacet
  facet normal 0.555869 0.83127 0
    outer loop
      vertex 16.6895 22.0326 3
      vertex 17.3291 21.6049 -3
      vertex 16.6895 22.0326 -3
    endloop
  endfacet
  facet normal 0.195392 0.980725 -0
    outer loop
      vertex 16.6895 22.0326 -3
      vertex 15.9346 22.183 3
      vertex 16.6895 22.0326 3
    endloop
  endfacet
  facet normal 0.195392 0.980725 0
    outer loop
      vertex 15.9346 22.183 3
      vertex 16.6895 22.0326 -3
      vertex 15.9346 22.183 -3
    endloop
  endfacet
  facet normal 0 1 -0
    outer loop
      vertex 15.9346 22.183 -3
      vertex 0 22.183 3
      vertex 15.9346 22.183 3
    endloop
  endfacet
  facet normal 0 1 0
    outer loop
      vertex 0 22.183 3
      vertex 15.9346 22.183 -3
      vertex 0 22.183 -3
    endloop
  endfacet
  facet normal 1 0 0
    outer loop
      vertex 0 -20.1832 3
      vertex 0 -45.05 0
      vertex 0 -20.1832 -3
    endloop
  endfacet
  facet normal 1 0 0
    outer loop
      vertex 0 -20.1832 3
      vertex 0 -45.1604 0.554891
      vertex 0 -45.05 0
    endloop
  endfacet
  facet normal 1 0 0
    outer loop
      vertex 0 -20.1832 3
      vertex 0 -45.4747 1.0253
      vertex 0 -45.1604 0.554891
    endloop
  endfacet
  facet normal 1 0 0
    outer loop
      vertex 0 -20.1832 3
      vertex 0 -45.9451 1.33962
      vertex 0 -45.4747 1.0253
    endloop
  endfacet
  facet normal 1 -0 0
    outer loop
      vertex 0 -49.5 3
      vertex 0 -45.9451 1.33962
      vertex 0 -20.1832 3
    endloop
  endfacet
  facet normal 1 0 0
    outer loop
      vertex 0 -47.8396 0.554891
      vertex 0 -49.5 3
      vertex 0 -47.95 0
    endloop
  endfacet
  facet normal 1 0 0
    outer loop
      vertex 0 -47.5253 1.0253
      vertex 0 -49.5 3
      vertex 0 -47.8396 0.554891
    endloop
  endfacet
  facet normal 1 0 0
    outer loop
      vertex 0 -47.0549 1.33962
      vertex 0 -49.5 3
      vertex 0 -47.5253 1.0253
    endloop
  endfacet
  facet normal 1 0 0
    outer loop
      vertex 0 -46.5 1.45
      vertex 0 -49.5 3
      vertex 0 -47.0549 1.33962
    endloop
  endfacet
  facet normal 1 0 0
    outer loop
      vertex 0 -45.9451 1.33962
      vertex 0 -49.5 3
      vertex 0 -46.5 1.45
    endloop
  endfacet
  facet normal 1 -0 0
    outer loop
      vertex 0 -45.1604 -0.554891
      vertex 0 -20.1832 -3
      vertex 0 -45.05 0
    endloop
  endfacet
  facet normal 1 -0 0
    outer loop
      vertex 0 -45.4747 -1.0253
      vertex 0 -20.1832 -3
      vertex 0 -45.1604 -0.554891
    endloop
  endfacet
  facet normal 1 -0 0
    outer loop
      vertex 0 -45.9451 -1.33962
      vertex 0 -20.1832 -3
      vertex 0 -45.4747 -1.0253
    endloop
  endfacet
  facet normal 1 0 0
    outer loop
      vertex 0 -49.5 -3
      vertex 0 -45.9451 -1.33962
      vertex 0 -46.5 -1.45
    endloop
  endfacet
  facet normal 1 0 0
    outer loop
      vertex 0 -49.5 -3
      vertex 0 -47.95 0
      vertex 0 -49.5 3
    endloop
  endfacet
  facet normal 1 0 0
    outer loop
      vertex 0 -45.9451 -1.33962
      vertex 0 -49.5 -3
      vertex 0 -20.1832 -3
    endloop
  endfacet
  facet normal 1 0 0
    outer loop
      vertex 0 -47.0549 -1.33962
      vertex 0 -49.5 -3
      vertex 0 -46.5 -1.45
    endloop
  endfacet
  facet normal 1 0 0
    outer loop
      vertex 0 -47.5253 -1.0253
      vertex 0 -49.5 -3
      vertex 0 -47.0549 -1.33962
    endloop
  endfacet
  facet normal 1 0 0
    outer loop
      vertex 0 -47.8396 -0.554891
      vertex 0 -49.5 -3
      vertex 0 -47.5253 -1.0253
    endloop
  endfacet
  facet normal 1 0 0
    outer loop
      vertex 0 -47.95 0
      vertex 0 -49.5 -3
      vertex 0 -47.8396 -0.554891
    endloop
  endfacet
  facet normal 1 0 0
    outer loop
      vertex 0 49.5 3
      vertex 0 47.95 0
      vertex 0 49.5 -3
    endloop
  endfacet
  facet normal 1 0 0
    outer loop
      vertex 0 49.5 3
      vertex 0 47.8396 0.554891
      vertex 0 47.95 0
    endloop
  endfacet
  facet normal 1 0 0
    outer loop
      vertex 0 49.5 3
      vertex 0 47.5253 1.0253
      vertex 0 47.8396 0.554891
    endloop
  endfacet
  facet normal 1 0 0
    outer loop
      vertex 0 49.5 3
      vertex 0 47.0549 1.33962
      vertex 0 47.5253 1.0253
    endloop
  endfacet
  facet normal 1 0 0
    outer loop
      vertex 0 49.5 3
      vertex 0 46.5 1.45
      vertex 0 47.0549 1.33962
    endloop
  endfacet
  facet normal 1 0 0
    outer loop
      vertex 0 49.5 3
      vertex 0 45.9451 1.33962
      vertex 0 46.5 1.45
    endloop
  endfacet
  facet normal 1 0 0
    outer loop
      vertex 0 45.1604 0.554891
      vertex 0 22.183 3
      vertex 0 45.05 0
    endloop
  endfacet
  facet normal 1 0 0
    outer loop
      vertex 0 45.4747 1.0253
      vertex 0 22.183 3
      vertex 0 45.1604 0.554891
    endloop
  endfacet
  facet normal 1 0 0
    outer loop
      vertex 0 45.9451 1.33962
      vertex 0 22.183 3
      vertex 0 45.4747 1.0253
    endloop
  endfacet
  facet normal 1 -0 0
    outer loop
      vertex 0 22.183 3
      vertex 0 45.9451 1.33962
      vertex 0 49.5 3
    endloop
  endfacet
  facet normal 1 -0 0
    outer loop
      vertex 0 47.8396 -0.554891
      vertex 0 49.5 -3
      vertex 0 47.95 0
    endloop
  endfacet
  facet normal 1 -0 0
    outer loop
      vertex 0 47.5253 -1.0253
      vertex 0 49.5 -3
      vertex 0 47.8396 -0.554891
    endloop
  endfacet
  facet normal 1 -0 0
    outer loop
      vertex 0 47.0549 -1.33962
      vertex 0 49.5 -3
      vertex 0 47.5253 -1.0253
    endloop
  endfacet
  facet normal 1 -0 0
    outer loop
      vertex 0 46.5 -1.45
      vertex 0 49.5 -3
      vertex 0 47.0549 -1.33962
    endloop
  endfacet
  facet normal 1 0 0
    outer loop
      vertex 0 45.9451 -1.33962
      vertex 0 49.5 -3
      vertex 0 46.5 -1.45
    endloop
  endfacet
  facet normal 1 0 0
    outer loop
      vertex 0 22.183 -3
      vertex 0 45.05 0
      vertex 0 22.183 3
    endloop
  endfacet
  facet normal 1 0 0
    outer loop
      vertex 0 45.05 0
      vertex 0 22.183 -3
      vertex 0 45.1604 -0.554891
    endloop
  endfacet
  facet normal 1 0 0
    outer loop
      vertex 0 45.1604 -0.554891
      vertex 0 22.183 -3
      vertex 0 45.4747 -1.0253
    endloop
  endfacet
  facet normal 1 0 0
    outer loop
      vertex 0 45.4747 -1.0253
      vertex 0 22.183 -3
      vertex 0 45.9451 -1.33962
    endloop
  endfacet
  facet normal 1 0 0
    outer loop
      vertex 0 45.9451 -1.33962
      vertex 0 22.183 -3
      vertex 0 49.5 -3
    endloop
  endfacet
  facet normal 0 -1 0
    outer loop
      vertex 0 -20.1832 -3
      vertex 18.7119 -20.1832 3
      vertex 0 -20.1832 3
    endloop
  endfacet
  facet normal 0 -1 -0
    outer loop
      vertex 18.7119 -20.1832 3
      vertex 0 -20.1832 -3
      vertex 18.7119 -20.1832 -3
    endloop
  endfacet
  facet normal 0.303369 -0.952873 0
    outer loop
      vertex 18.7119 -20.1832 -3
      vertex 18.9971 -20.0924 3
      vertex 18.7119 -20.1832 3
    endloop
  endfacet
  facet normal 0.303369 -0.952873 0
    outer loop
      vertex 18.9971 -20.0924 3
      vertex 18.7119 -20.1832 -3
      vertex 18.9971 -20.0924 -3
    endloop
  endfacet
  facet normal -1 0 0
    outer loop
      vertex -5 -43.5 -3
      vertex -5 43.5 3
      vertex -5 43.5 -3
    endloop
  endfacet
  facet normal -1 -0 0
    outer loop
      vertex -5 43.5 3
      vertex -5 -43.5 -3
      vertex -5 -43.5 3
    endloop
  endfacet
  facet normal 0 1 -0
    outer loop
      vertex 0 49.5 -3
      vertex -7 49.5 3
      vertex 0 49.5 3
    endloop
  endfacet
  facet normal 0 1 0
    outer loop
      vertex -7 49.5 3
      vertex 0 49.5 -3
      vertex -7 49.5 -3
    endloop
  endfacet
  facet normal 0 -1 0
    outer loop
      vertex -7 -49.5 -3
      vertex 0 -49.5 3
      vertex -7 -49.5 3
    endloop
  endfacet
  facet normal 0 -1 -0
    outer loop
      vertex 0 -49.5 3
      vertex -7 -49.5 -3
      vertex 0 -49.5 -3
    endloop
  endfacet
  facet normal -1 0 0
    outer loop
      vertex -7 49.5 -3
      vertex -7 47.95 0
      vertex -7 49.5 3
    endloop
  endfacet
  facet normal -1 0 0
    outer loop
      vertex -7 49.5 -3
      vertex -7 47.8396 -0.554891
      vertex -7 47.95 0
    endloop
  endfacet
  facet normal -1 0 0
    outer loop
      vertex -7 49.5 -3
      vertex -7 47.5253 -1.0253
      vertex -7 47.8396 -0.554891
    endloop
  endfacet
  facet normal -1 0 0
    outer loop
      vertex -7 49.5 -3
      vertex -7 47.0549 -1.33962
      vertex -7 47.5253 -1.0253
    endloop
  endfacet
  facet normal -1 0 0
    outer loop
      vertex -7 49.5 -3
      vertex -7 46.5 -1.45
      vertex -7 47.0549 -1.33962
    endloop
  endfacet
  facet normal -1 0 0
    outer loop
      vertex -7 43.5 -3
      vertex -7 46.5 -1.45
      vertex -7 49.5 -3
    endloop
  endfacet
  facet normal -1 -0 0
    outer loop
      vertex -7 45.1604 -0.554891
      vertex -7 43.5 -3
      vertex -7 45.05 0
    endloop
  endfacet
  facet normal -1 -0 0
    outer loop
      vertex -7 45.4747 -1.0253
      vertex -7 43.5 -3
      vertex -7 45.1604 -0.554891
    endloop
  endfacet
  facet normal -1 -0 0
    outer loop
      vertex -7 45.9451 -1.33962
      vertex -7 43.5 -3
      vertex -7 45.4747 -1.0253
    endloop
  endfacet
  facet normal -1 -0 0
    outer loop
      vertex -7 46.5 -1.45
      vertex -7 43.5 -3
      vertex -7 45.9451 -1.33962
    endloop
  endfacet
  facet normal -1 0 0
    outer loop
      vertex -7 47.8396 0.554891
      vertex -7 49.5 3
      vertex -7 47.95 0
    endloop
  endfacet
  facet normal -1 0 0
    outer loop
      vertex -7 47.5253 1.0253
      vertex -7 49.5 3
      vertex -7 47.8396 0.554891
    endloop
  endfacet
  facet normal -1 0 0
    outer loop
      vertex -7 47.0549 1.33962
      vertex -7 49.5 3
      vertex -7 47.5253 1.0253
    endloop
  endfacet
  facet normal -1 0 0
    outer loop
      vertex -7 46.5 1.45
      vertex -7 49.5 3
      vertex -7 47.0549 1.33962
    endloop
  endfacet
  facet normal -1 0 0
    outer loop
      vertex -7 43.5 3
      vertex -7 46.5 1.45
      vertex -7 45.9451 1.33962
    endloop
  endfacet
  facet normal -1 0 0
    outer loop
      vertex -7 43.5 3
      vertex -7 45.05 0
      vertex -7 43.5 -3
    endloop
  endfacet
  facet normal -1 0 0
    outer loop
      vertex -7 46.5 1.45
      vertex -7 43.5 3
      vertex -7 49.5 3
    endloop
  endfacet
  facet normal -1 0 0
    outer loop
      vertex -7 45.4747 1.0253
      vertex -7 43.5 3
      vertex -7 45.9451 1.33962
    endloop
  endfacet
  facet normal -1 0 0
    outer loop
      vertex -7 45.1604 0.554891
      vertex -7 43.5 3
      vertex -7 45.4747 1.0253
    endloop
  endfacet
  facet normal -1 0 0
    outer loop
      vertex -7 45.05 0
      vertex -7 43.5 3
      vertex -7 45.1604 0.554891
    endloop
  endfacet
  facet normal 0 -1 0
    outer loop
      vertex -7 43.5 -3
      vertex -5 43.5 3
      vertex -7 43.5 3
    endloop
  endfacet
  facet normal 0 -1 -0
    outer loop
      vertex -5 43.5 3
      vertex -7 43.5 -3
      vertex -5 43.5 -3
    endloop
  endfacet
  facet normal -1 0 0
    outer loop
      vertex -7 -43.5 -3
      vertex -7 -45.05 0
      vertex -7 -43.5 3
    endloop
  endfacet
  facet normal -1 0 0
    outer loop
      vertex -7 -43.5 -3
      vertex -7 -45.1604 -0.554891
      vertex -7 -45.05 0
    endloop
  endfacet
  facet normal -1 0 0
    outer loop
      vertex -7 -43.5 -3
      vertex -7 -45.4747 -1.0253
      vertex -7 -45.1604 -0.554891
    endloop
  endfacet
  facet normal -1 0 0
    outer loop
      vertex -7 -43.5 -3
      vertex -7 -45.9451 -1.33962
      vertex -7 -45.4747 -1.0253
    endloop
  endfacet
  facet normal -1 0 0
    outer loop
      vertex -7 -43.5 -3
      vertex -7 -46.5 -1.45
      vertex -7 -45.9451 -1.33962
    endloop
  endfacet
  facet normal -1 0 0
    outer loop
      vertex -7 -49.5 -3
      vertex -7 -46.5 -1.45
      vertex -7 -43.5 -3
    endloop
  endfacet
  facet normal -1 -0 0
    outer loop
      vertex -7 -47.8396 -0.554891
      vertex -7 -49.5 -3
      vertex -7 -47.95 0
    endloop
  endfacet
  facet normal -1 -0 0
    outer loop
      vertex -7 -47.5253 -1.0253
      vertex -7 -49.5 -3
      vertex -7 -47.8396 -0.554891
    endloop
  endfacet
  facet normal -1 -0 0
    outer loop
      vertex -7 -47.0549 -1.33962
      vertex -7 -49.5 -3
      vertex -7 -47.5253 -1.0253
    endloop
  endfacet
  facet normal -1 -0 0
    outer loop
      vertex -7 -46.5 -1.45
      vertex -7 -49.5 -3
      vertex -7 -47.0549 -1.33962
    endloop
  endfacet
  facet normal -1 0 0
    outer loop
      vertex -7 -45.1604 0.554891
      vertex -7 -43.5 3
      vertex -7 -45.05 0
    endloop
  endfacet
  facet normal -1 0 0
    outer loop
      vertex -7 -45.4747 1.0253
      vertex -7 -43.5 3
      vertex -7 -45.1604 0.554891
    endloop
  endfacet
  facet normal -1 0 0
    outer loop
      vertex -7 -45.9451 1.33962
      vertex -7 -43.5 3
      vertex -7 -45.4747 1.0253
    endloop
  endfacet
  facet normal -1 0 0
    outer loop
      vertex -7 -46.5 1.45
      vertex -7 -43.5 3
      vertex -7 -45.9451 1.33962
    endloop
  endfacet
  facet normal -1 0 0
    outer loop
      vertex -7 -49.5 3
      vertex -7 -46.5 1.45
      vertex -7 -47.0549 1.33962
    endloop
  endfacet
  facet normal -1 0 0
    outer loop
      vertex -7 -49.5 3
      vertex -7 -47.95 0
      vertex -7 -49.5 -3
    endloop
  endfacet
  facet normal -1 0 0
    outer loop
      vertex -7 -46.5 1.45
      vertex -7 -49.5 3
      vertex -7 -43.5 3
    endloop
  endfacet
  facet normal -1 0 0
    outer loop
      vertex -7 -47.5253 1.0253
      vertex -7 -49.5 3
      vertex -7 -47.0549 1.33962
    endloop
  endfacet
  facet normal -1 0 0
    outer loop
      vertex -7 -47.8396 0.554891
      vertex -7 -49.5 3
      vertex -7 -47.5253 1.0253
    endloop
  endfacet
  facet normal -1 0 0
    outer loop
      vertex -7 -47.95 0
      vertex -7 -49.5 3
      vertex -7 -47.8396 0.554891
    endloop
  endfacet
  facet normal 0 1 -0
    outer loop
      vertex -5 -43.5 -3
      vertex -7 -43.5 3
      vertex -5 -43.5 3
    endloop
  endfacet
  facet normal 0 1 0
    outer loop
      vertex -7 -43.5 3
      vertex -5 -43.5 -3
      vertex -7 -43.5 -3
    endloop
  endfacet
  facet normal 0 -0.195096 0.980784
    outer loop
      vertex -7 -45.9451 -1.33962
      vertex 0 -46.5 -1.45
      vertex 0 -45.9451 -1.33962
    endloop
  endfacet
  facet normal 0 -0.195096 0.980784
    outer loop
      vertex 0 -46.5 -1.45
      vertex -7 -45.9451 -1.33962
      vertex -7 -46.5 -1.45
    endloop
  endfacet
  facet normal 0 -0.195096 -0.980784
    outer loop
      vertex -7 -46.5 1.45
      vertex 0 -45.9451 1.33962
      vertex 0 -46.5 1.45
    endloop
  endfacet
  facet normal -0 -0.195096 -0.980784
    outer loop
      vertex 0 -45.9451 1.33962
      vertex -7 -46.5 1.45
      vertex -7 -45.9451 1.33962
    endloop
  endfacet
  facet normal 0 -0.555581 0.831462
    outer loop
      vertex -7 -45.4747 -1.0253
      vertex 0 -45.9451 -1.33962
      vertex 0 -45.4747 -1.0253
    endloop
  endfacet
  facet normal 0 -0.555581 0.831462
    outer loop
      vertex 0 -45.9451 -1.33962
      vertex -7 -45.4747 -1.0253
      vertex -7 -45.9451 -1.33962
    endloop
  endfacet
  facet normal 0 0.980777 -0.195133
    outer loop
      vertex 0 -47.95 0
      vertex -7 -47.8396 0.554891
      vertex 0 -47.8396 0.554891
    endloop
  endfacet
  facet normal 0 0.980777 -0.195133
    outer loop
      vertex -7 -47.8396 0.554891
      vertex 0 -47.95 0
      vertex -7 -47.95 0
    endloop
  endfacet
  facet normal 0 0.555581 -0.831462
    outer loop
      vertex -7 -47.5253 1.0253
      vertex 0 -47.0549 1.33962
      vertex 0 -47.5253 1.0253
    endloop
  endfacet
  facet normal 0 0.555581 -0.831462
    outer loop
      vertex 0 -47.0549 1.33962
      vertex -7 -47.5253 1.0253
      vertex -7 -47.0549 1.33962
    endloop
  endfacet
  facet normal 0 -0.831484 0.555549
    outer loop
      vertex -7 -45.4747 -1.0253
      vertex 0 -45.1604 -0.554891
      vertex -7 -45.1604 -0.554891
    endloop
  endfacet
  facet normal 0 -0.831484 0.555549
    outer loop
      vertex 0 -45.1604 -0.554891
      vertex -7 -45.4747 -1.0253
      vertex 0 -45.4747 -1.0253
    endloop
  endfacet
  facet normal 0 -0.831484 -0.555549
    outer loop
      vertex -7 -45.1604 0.554891
      vertex 0 -45.4747 1.0253
      vertex -7 -45.4747 1.0253
    endloop
  endfacet
  facet normal 0 -0.831484 -0.555549
    outer loop
      vertex 0 -45.4747 1.0253
      vertex -7 -45.1604 0.554891
      vertex 0 -45.1604 0.554891
    endloop
  endfacet
  facet normal 0 -0.555581 -0.831462
    outer loop
      vertex -7 -45.9451 1.33962
      vertex 0 -45.4747 1.0253
      vertex 0 -45.9451 1.33962
    endloop
  endfacet
  facet normal -0 -0.555581 -0.831462
    outer loop
      vertex 0 -45.4747 1.0253
      vertex -7 -45.9451 1.33962
      vertex -7 -45.4747 1.0253
    endloop
  endfacet
  facet normal 0 -0.980777 -0.195133
    outer loop
      vertex -7 -45.05 0
      vertex 0 -45.1604 0.554891
      vertex -7 -45.1604 0.554891
    endloop
  endfacet
  facet normal 0 -0.980777 -0.195133
    outer loop
      vertex 0 -45.1604 0.554891
      vertex -7 -45.05 0
      vertex 0 -45.05 0
    endloop
  endfacet
  facet normal 0 0.831484 -0.555549
    outer loop
      vertex 0 -47.8396 0.554891
      vertex -7 -47.5253 1.0253
      vertex 0 -47.5253 1.0253
    endloop
  endfacet
  facet normal 0 0.831484 -0.555549
    outer loop
      vertex -7 -47.5253 1.0253
      vertex 0 -47.8396 0.554891
      vertex -7 -47.8396 0.554891
    endloop
  endfacet
  facet normal 0 0.195096 -0.980784
    outer loop
      vertex -7 -47.0549 1.33962
      vertex 0 -46.5 1.45
      vertex 0 -47.0549 1.33962
    endloop
  endfacet
  facet normal 0 0.195096 -0.980784
    outer loop
      vertex 0 -46.5 1.45
      vertex -7 -47.0549 1.33962
      vertex -7 -46.5 1.45
    endloop
  endfacet
  facet normal 0 -0.980777 0.195133
    outer loop
      vertex -7 -45.1604 -0.554891
      vertex 0 -45.05 0
      vertex -7 -45.05 0
    endloop
  endfacet
  facet normal 0 -0.980777 0.195133
    outer loop
      vertex 0 -45.05 0
      vertex -7 -45.1604 -0.554891
      vertex 0 -45.1604 -0.554891
    endloop
  endfacet
  facet normal 0 0.831484 0.555549
    outer loop
      vertex 0 -47.5253 -1.0253
      vertex -7 -47.8396 -0.554891
      vertex 0 -47.8396 -0.554891
    endloop
  endfacet
  facet normal 0 0.831484 0.555549
    outer loop
      vertex -7 -47.8396 -0.554891
      vertex 0 -47.5253 -1.0253
      vertex -7 -47.5253 -1.0253
    endloop
  endfacet
  facet normal 0 0.980777 0.195133
    outer loop
      vertex 0 -47.8396 -0.554891
      vertex -7 -47.95 0
      vertex 0 -47.95 0
    endloop
  endfacet
  facet normal 0 0.980777 0.195133
    outer loop
      vertex -7 -47.95 0
      vertex 0 -47.8396 -0.554891
      vertex -7 -47.8396 -0.554891
    endloop
  endfacet
  facet normal -0 0.555581 0.831462
    outer loop
      vertex -7 -47.0549 -1.33962
      vertex 0 -47.5253 -1.0253
      vertex 0 -47.0549 -1.33962
    endloop
  endfacet
  facet normal 0 0.555581 0.831462
    outer loop
      vertex 0 -47.5253 -1.0253
      vertex -7 -47.0549 -1.33962
      vertex -7 -47.5253 -1.0253
    endloop
  endfacet
  facet normal -0 0.195096 0.980784
    outer loop
      vertex -7 -46.5 -1.45
      vertex 0 -47.0549 -1.33962
      vertex 0 -46.5 -1.45
    endloop
  endfacet
  facet normal 0 0.195096 0.980784
    outer loop
      vertex 0 -47.0549 -1.33962
      vertex -7 -46.5 -1.45
      vertex -7 -47.0549 -1.33962
    endloop
  endfacet
  facet normal 0 -0.195096 0.980784
    outer loop
      vertex -7 47.0549 -1.33962
      vertex 0 46.5 -1.45
      vertex 0 47.0549 -1.33962
    endloop
  endfacet
  facet normal 0 -0.195096 0.980784
    outer loop
      vertex 0 46.5 -1.45
      vertex -7 47.0549 -1.33962
      vertex -7 46.5 -1.45
    endloop
  endfacet
  facet normal 0 0.195096 -0.980784
    outer loop
      vertex -7 45.9451 1.33962
      vertex 0 46.5 1.45
      vertex 0 45.9451 1.33962
    endloop
  endfacet
  facet normal 0 0.195096 -0.980784
    outer loop
      vertex 0 46.5 1.45
      vertex -7 45.9451 1.33962
      vertex -7 46.5 1.45
    endloop
  endfacet
  facet normal 0 -0.980777 -0.195133
    outer loop
      vertex -7 47.95 0
      vertex 0 47.8396 0.554891
      vertex -7 47.8396 0.554891
    endloop
  endfacet
  facet normal 0 -0.980777 -0.195133
    outer loop
      vertex 0 47.8396 0.554891
      vertex -7 47.95 0
      vertex 0 47.95 0
    endloop
  endfacet
  facet normal 0 0.980777 0.195133
    outer loop
      vertex 0 45.1604 -0.554891
      vertex -7 45.05 0
      vertex 0 45.05 0
    endloop
  endfacet
  facet normal 0 0.980777 0.195133
    outer loop
      vertex -7 45.05 0
      vertex 0 45.1604 -0.554891
      vertex -7 45.1604 -0.554891
    endloop
  endfacet
  facet normal 0 0.831484 0.555549
    outer loop
      vertex 0 45.4747 -1.0253
      vertex -7 45.1604 -0.554891
      vertex 0 45.1604 -0.554891
    endloop
  endfacet
  facet normal 0 0.831484 0.555549
    outer loop
      vertex -7 45.1604 -0.554891
      vertex 0 45.4747 -1.0253
      vertex -7 45.4747 -1.0253
    endloop
  endfacet
  facet normal 0 -0.555581 0.831462
    outer loop
      vertex -7 47.5253 -1.0253
      vertex 0 47.0549 -1.33962
      vertex 0 47.5253 -1.0253
    endloop
  endfacet
  facet normal 0 -0.555581 0.831462
    outer loop
      vertex 0 47.0549 -1.33962
      vertex -7 47.5253 -1.0253
      vertex -7 47.0549 -1.33962
    endloop
  endfacet
  facet normal 0 -0.980777 0.195133
    outer loop
      vertex -7 47.8396 -0.554891
      vertex 0 47.95 0
      vertex -7 47.95 0
    endloop
  endfacet
  facet normal 0 -0.980777 0.195133
    outer loop
      vertex 0 47.95 0
      vertex -7 47.8396 -0.554891
      vertex 0 47.8396 -0.554891
    endloop
  endfacet
  facet normal 0 -0.555581 -0.831462
    outer loop
      vertex -7 47.0549 1.33962
      vertex 0 47.5253 1.0253
      vertex 0 47.0549 1.33962
    endloop
  endfacet
  facet normal -0 -0.555581 -0.831462
    outer loop
      vertex 0 47.5253 1.0253
      vertex -7 47.0549 1.33962
      vertex -7 47.5253 1.0253
    endloop
  endfacet
  facet normal 0 -0.195096 -0.980784
    outer loop
      vertex -7 46.5 1.45
      vertex 0 47.0549 1.33962
      vertex 0 46.5 1.45
    endloop
  endfacet
  facet normal -0 -0.195096 -0.980784
    outer loop
      vertex 0 47.0549 1.33962
      vertex -7 46.5 1.45
      vertex -7 47.0549 1.33962
    endloop
  endfacet
  facet normal 0 -0.831484 -0.555549
    outer loop
      vertex -7 47.8396 0.554891
      vertex 0 47.5253 1.0253
      vertex -7 47.5253 1.0253
    endloop
  endfacet
  facet normal 0 -0.831484 -0.555549
    outer loop
      vertex 0 47.5253 1.0253
      vertex -7 47.8396 0.554891
      vertex 0 47.8396 0.554891
    endloop
  endfacet
  facet normal -0 0.195096 0.980784
    outer loop
      vertex -7 46.5 -1.45
      vertex 0 45.9451 -1.33962
      vertex 0 46.5 -1.45
    endloop
  endfacet
  facet normal 0 0.195096 0.980784
    outer loop
      vertex 0 45.9451 -1.33962
      vertex -7 46.5 -1.45
      vertex -7 45.9451 -1.33962
    endloop
  endfacet
  facet normal 0 -0.831484 0.555549
    outer loop
      vertex -7 47.5253 -1.0253
      vertex 0 47.8396 -0.554891
      vertex -7 47.8396 -0.554891
    endloop
  endfacet
  facet normal 0 -0.831484 0.555549
    outer loop
      vertex 0 47.8396 -0.554891
      vertex -7 47.5253 -1.0253
      vertex 0 47.5253 -1.0253
    endloop
  endfacet
  facet normal -0 0.555581 0.831462
    outer loop
      vertex -7 45.9451 -1.33962
      vertex 0 45.4747 -1.0253
      vertex 0 45.9451 -1.33962
    endloop
  endfacet
  facet normal 0 0.555581 0.831462
    outer loop
      vertex 0 45.4747 -1.0253
      vertex -7 45.9451 -1.33962
      vertex -7 45.4747 -1.0253
    endloop
  endfacet
  facet normal 0 0.980777 -0.195133
    outer loop
      vertex 0 45.05 0
      vertex -7 45.1604 0.554891
      vertex 0 45.1604 0.554891
    endloop
  endfacet
  facet normal 0 0.980777 -0.195133
    outer loop
      vertex -7 45.1604 0.554891
      vertex 0 45.05 0
      vertex -7 45.05 0
    endloop
  endfacet
  facet normal 0 0.831484 -0.555549
    outer loop
      vertex 0 45.1604 0.554891
      vertex -7 45.4747 1.0253
      vertex 0 45.4747 1.0253
    endloop
  endfacet
  facet normal 0 0.831484 -0.555549
    outer loop
      vertex -7 45.4747 1.0253
      vertex 0 45.1604 0.554891
      vertex -7 45.1604 0.554891
    endloop
  endfacet
  facet normal 0 0.555581 -0.831462
    outer loop
      vertex -7 45.4747 1.0253
      vertex 0 45.9451 1.33962
      vertex 0 45.4747 1.0253
    endloop
  endfacet
  facet normal 0 0.555581 -0.831462
    outer loop
      vertex 0 45.9451 1.33962
      vertex -7 45.4747 1.0253
      vertex -7 45.9451 1.33962
    endloop
  endfacet
endsolid OpenSCAD_Model
